<svg width="40" height="41" viewBox="0 0 40 41" fill="none" xmlns="http://www.w3.org/2000/svg">
<rect y="0.0390625" width="40" height="40" rx="20" fill="#86868B" fill-opacity="0.92"/>
<g clip-path="url(#clip0_1_139)">
<path d="M30.8 18.3391H21.6V9.23906C21.6 8.43906 20.8 7.53906 19.9 7.53906C19.1 7.53906 18.2 8.33906 18.2 9.23906V18.4391H9.2C8.4 18.4391 7.5 19.2391 7.5 20.1391C7.5 20.9391 8.3 21.8391 9.2 21.8391H18.4V31.0391C18.4 31.8391 19.2 32.7391 20.1 32.7391C20.9 32.7391 21.8 31.9391 21.8 31.0391V21.8391H31C31.8 21.8391 32.7 21.0391 32.7 20.1391C32.5 19.2391 31.7 18.3391 30.8 18.3391Z" fill="white"/>
</g>
<defs>
<clipPath id="clip0_1_139">
<rect y="0.0390625" width="40" height="40" rx="20" fill="white"/>
</clipPath>
</defs>
</svg>
