<svg width="21" height="34" viewBox="0 0 21 34" fill="none" xmlns="http://www.w3.org/2000/svg">
<path d="M17.2123 18.23C18.8244 16.5918 20.7423 13.999 20.7423 10.9406C20.757 8.21533 19.7008 5.59332 17.801 3.63929C16.8918 2.69232 15.8029 1.93616 14.5979 1.41507C13.393 0.89398 12.0962 0.618414 10.7835 0.604492H10.6718C9.36406 0.622307 8.07288 0.899759 6.87326 1.42073C5.67363 1.94171 4.58946 2.69583 3.68371 3.63929C1.78541 5.59183 0.729222 8.2114 0.742308 10.9346C0.742308 13.993 2.64231 16.5859 4.23651 18.23C5.58194 19.8211 6.30686 21.8449 6.27761 23.9284L6.28331 25H15.2306V23.9461C15.1798 21.864 15.8836 19.8338 17.2123 18.23ZM13.2423 34H8.24231V33H13.2423V34ZM15.2423 31H6.24231V30H15.2423V31ZM15.2423 28H6.24231V27H15.2423V28Z" fill="#1D1D1F"/>
</svg>
