<svg width="33" height="32" viewBox="0 0 33 32" fill="none" xmlns="http://www.w3.org/2000/svg">
<path d="M32.0468 10.0079C32.0468 9.62593 32.0468 9.24393 32.0468 8.86193C32.0468 8.53993 32.0408 8.21793 32.0328 7.89693C32.0239 7.19328 31.962 6.4913 31.8478 5.79693C31.7292 5.10123 31.5075 4.42713 31.1898 3.79693C30.5439 2.53143 29.5136 1.5032 28.2468 0.85993C27.6166 0.542335 26.9425 0.320559 26.2468 0.201929C25.5524 0.0876959 24.8505 0.0258553 24.1468 0.0169296C23.8248 0.00792963 23.5028 0.00392969 23.1808 0.00292969C22.7988 0.00292969 22.4168 0.00292969 22.0338 0.00292969H10.0548C9.6728 0.00292969 9.2908 0.00292969 8.9088 0.00292969C8.58681 0.00292969 8.2648 0.00892963 7.9438 0.0169296C7.24016 0.0258553 6.53818 0.0876959 5.8438 0.201929C5.14811 0.320501 4.47401 0.54228 3.8438 0.85993C2.57877 1.505 1.55059 2.53423 0.906805 3.79993C0.58921 4.43015 0.367435 5.10424 0.248805 5.79993C0.134568 6.4943 0.0727266 7.19628 0.0638047 7.89993C0.0548047 8.22193 0.0508047 8.54393 0.0498047 8.86593C0.0498047 9.24793 0.0498047 9.62993 0.0498047 10.0129V23.1929C0.0498047 23.4929 0.0558047 23.7989 0.0638047 24.1029C0.0722155 24.8055 0.133388 25.5065 0.246805 26.1999C0.365377 26.8956 0.587155 27.5697 0.904805 28.1999C1.5504 29.4653 2.58036 30.4935 3.8468 31.1369C4.47706 31.4544 5.15114 31.6762 5.84681 31.7949C6.54118 31.9092 7.24316 31.971 7.94681 31.9799C8.2688 31.9889 8.59081 31.9929 8.9128 31.9939C9.2948 31.9939 9.6768 31.9939 10.0598 31.9939H22.0438C22.4258 31.9939 22.8078 31.9939 23.1898 31.9939C23.5118 31.9939 23.8338 31.9879 24.1548 31.9799C24.8585 31.971 25.5604 31.9092 26.2548 31.7949C26.9505 31.6764 27.6246 31.4546 28.2548 31.1369C29.5175 30.4918 30.5438 29.4638 31.1868 28.1999C31.5043 27.5697 31.7261 26.8956 31.8448 26.1999C31.959 25.5056 32.0209 24.8036 32.0298 24.0999C32.0388 23.7779 32.0428 23.4559 32.0438 23.1339C32.0438 22.7519 32.0438 22.3699 32.0438 21.9869L32.0468 10.0079ZM9.9058 10.3819C10.3377 9.87996 10.9467 9.56402 11.6058 9.49993C11.653 10.1704 11.4378 10.833 11.0058 11.3479C10.8007 11.6059 10.539 11.8131 10.2408 11.9536C9.94274 12.094 9.61629 12.164 9.2868 12.1579C9.26668 11.8356 9.31107 11.5125 9.41735 11.2076C9.52364 10.9026 9.6897 10.6219 9.9058 10.3819ZM13.2178 19.5999C12.7358 20.3089 12.2398 20.9999 11.4468 21.0179C10.6818 21.0319 10.4268 20.5639 9.5468 20.5639C8.6668 20.5639 8.3848 21.0039 7.6618 21.0319C6.8968 21.0599 6.3158 20.2799 5.83481 19.5719C4.8428 18.1399 4.0918 15.5319 5.1118 13.7719C5.34789 13.3442 5.69177 12.9857 6.10929 12.7321C6.5268 12.4784 7.00343 12.3384 7.49181 12.3259C8.24281 12.3119 8.9368 12.8259 9.3918 12.8259C9.8468 12.8259 10.6528 12.2259 11.6018 12.2869C12.0182 12.3035 12.4252 12.4156 12.7912 12.6147C13.1573 12.8137 13.4726 13.0944 13.7128 13.4349C13.3364 13.6669 13.0248 13.9902 12.8068 14.3748C12.5888 14.7594 12.4715 15.1929 12.4658 15.6349C12.4697 16.1323 12.6175 16.6179 12.8916 17.033C13.1656 17.4481 13.554 17.7749 14.0098 17.9739C13.8254 18.5512 13.5586 19.0988 13.2178 19.5999ZM19.1968 14.1379H17.6468V18.6669C17.6468 19.3669 17.9548 19.6909 18.6328 19.6909C18.8184 19.6879 19.0036 19.6749 19.1878 19.6519V20.9309C18.8847 20.9803 18.5779 21.0034 18.2708 20.9999C16.6708 20.9999 16.0468 20.3859 16.0468 18.8299V14.1389H14.8608V12.8679H16.0468V10.9419H17.6468V12.8679H19.1968V14.1379ZM24.6158 20.9379H22.9158L20.0558 12.8679H21.7468L23.7528 19.3529H23.7908L25.7968 12.8679H27.4588L24.6158 20.9379Z" fill="#1D1D1F"/>
</svg>
