<svg width="35" height="23" viewBox="0 0 35 23" fill="none" xmlns="http://www.w3.org/2000/svg">
<path d="M30.9879 15.61C32.2862 15.4107 33.4999 14.8424 34.4844 13.9728V18.7028C34.4844 22.9328 29.4785 22.9428 26.0984 23.0005H8.87037C5.49027 22.9421 0.484375 22.9323 0.484375 18.7023V13.9764C1.4702 14.8433 2.68342 15.4101 3.98088 15.61C5.46578 15.8957 6.97636 16.0264 8.48827 16H26.4805C27.9924 16.0264 29.503 15.8957 30.9879 15.61ZM34.4629 11.2889C34.8972 14.7816 28.6283 15.026 26.4805 15.0001H8.48827C6.33987 15.0259 0.072375 14.7817 0.505875 11.2889C1.06962 8.33036 1.78797 5.40338 2.65797 2.52C4.23658 -0.4263 8.70708 0.107 11.7544 0H23.2144C26.2613 0.1076 30.7306 -0.4268 32.3107 2.52C32.8807 4.1325 33.4764 6.9806 34.043 9.199C34.2379 9.88342 34.3783 10.5822 34.4629 11.2888V11.2889ZM16.1909 8.8656C16.7438 8.8561 16.9256 8.7009 17.5545 8.7009C18.1834 8.7009 18.3604 8.8656 18.9077 8.8609C19.3787 8.84399 19.8305 8.67002 20.1912 8.3667C20.4164 8.21563 20.6125 8.0251 20.77 7.8043C20.1138 7.6657 19.6964 7.3543 19.7032 7.0126C19.7219 6.7136 20.0576 6.4394 20.5917 6.2843C19.9645 5.7384 18.23 5.956 17.607 6.0843C16.8052 5.9108 15.2663 5.8043 14.6136 6.3964C13.4377 7.3434 15.0321 8.8516 16.1909 8.8655V8.8656ZM17.5735 5.869C17.9891 5.88387 18.4018 5.79383 18.7735 5.6072C19.0779 5.4414 19.2335 5.2292 19.2097 5.0158C18.8006 5.025 18.3982 5.12094 18.029 5.2973C17.7222 5.4528 17.5576 5.6586 17.5735 5.8689V5.869Z" fill="#1D1D1F"/>
</svg>
