<svg width="46" height="18" viewBox="0 0 46 18" fill="none" xmlns="http://www.w3.org/2000/svg">
<path d="M9.60876 3.65216C10.2446 2.88579 10.5599 1.90343 10.4888 0.910156C9.51352 1.00439 8.61328 1.4746 7.97876 2.22116C7.66263 2.57867 7.42037 2.9952 7.2659 3.44674C7.11144 3.89829 7.04784 4.37593 7.07876 4.85216C7.56456 4.86152 8.04591 4.75802 8.48493 4.54979C8.92394 4.34156 9.30865 4.03429 9.60876 3.65216ZM10.4288 5.03316C9.02876 4.95216 7.84876 5.83316 7.17876 5.83316C6.50876 5.83316 5.48876 5.07716 4.38876 5.09716C3.66848 5.11735 2.96612 5.32628 2.35192 5.70305C1.73771 6.07982 1.23317 6.61124 0.888758 7.24416C-0.611242 9.84416 0.488758 13.7172 1.94876 15.8342C2.65876 16.8402 3.50876 18.0392 4.63876 18.0002C5.76876 17.9612 6.11876 17.3002 7.40876 17.3002C8.69876 17.3002 9.07876 18.0002 10.1988 17.9752C11.3188 17.9502 12.0988 16.9672 12.7988 15.8752C13.3032 15.129 13.6972 14.3139 13.9688 13.4552C13.2962 13.1577 12.724 12.672 12.3212 12.0566C11.9184 11.4413 11.7023 10.7226 11.6988 9.98716C11.707 9.33467 11.8789 8.69469 12.1986 8.12584C12.5183 7.55699 12.9757 7.07745 13.5288 6.73116C13.1773 6.22876 12.7148 5.81407 12.1772 5.51926C11.6396 5.22444 11.0413 5.05742 10.4288 5.03115M19.3588 3.01516V5.87016H21.6388V7.75516H19.3588V14.5102C19.3588 15.5182 19.8088 16.0322 20.8088 16.0322C21.083 16.027 21.3567 16.007 21.6288 15.9722V17.8722C21.1825 17.9446 20.7308 17.9781 20.2788 17.9722C17.9188 17.9722 17.0088 17.0552 17.0088 14.7562V7.80016H15.2188V5.91116H16.9588V3.01716L19.3588 3.01516ZM29.6088 17.8682H27.1088L22.9088 5.91116H25.3988L28.3488 15.5192H28.4088L31.3588 5.91116H33.7988L29.6088 17.8682ZM40.5888 17.8682H38.4288V12.9682H33.7888V10.8112H38.4188V5.91116H40.5788V10.8112H45.2188V12.9692H40.5888V17.8682Z" fill="#1D1D1F"/>
</svg>
