<svg width="37" height="32" viewBox="0 0 37 32" fill="none" xmlns="http://www.w3.org/2000/svg">
<path d="M19.1658 13.5501C18.9418 13.367 18.6614 13.2669 18.372 13.2667C18.0827 13.2665 17.8022 13.3663 17.5779 13.5491L16.867 14.1321L14.867 15.7721V20.9601C14.8673 21.241 14.9791 21.5103 15.1779 21.7088C15.3766 21.9073 15.6461 22.0187 15.927 22.0185H20.807C21.0879 22.0187 21.3574 21.9073 21.5561 21.7088C21.7549 21.5103 21.8667 21.241 21.867 20.9601V15.7643L19.867 14.1243L19.1658 13.5501ZM19.867 20.0224H16.867V16.7158L18.3719 15.482L19.867 16.708V20.0224ZM19.659 6.94854C19.2986 6.64187 18.8409 6.47339 18.3677 6.4732C17.8945 6.47302 17.4366 6.64115 17.076 6.94753L13.4798 9.98384L9.867 13.0339V24.9559C9.86722 25.2183 9.91913 25.4781 10.0198 25.7205C10.1204 25.9628 10.2678 26.183 10.4535 26.3683C10.6392 26.5537 10.8596 26.7007 11.1022 26.8009C11.3447 26.9011 11.6046 26.9525 11.867 26.9522H24.867C25.1294 26.9525 25.3893 26.9011 25.6318 26.8009C25.8743 26.7007 26.0948 26.5537 26.2805 26.3683C26.4662 26.183 26.6136 25.9628 26.7142 25.7205C26.8149 25.4781 26.8668 25.2183 26.867 24.9559V13.034L23.2543 9.98404L19.659 6.94854ZM24.867 24.9559H11.867V13.9601L14.212 11.9801L15.1207 11.213C15.1966 11.1228 15.2874 11.0461 15.3891 10.9863L16.577 9.98384L18.367 8.47204L20.1575 9.98384L21.3449 10.9862C21.4466 11.046 21.5374 11.1227 21.6133 11.2129L22.522 11.98L24.867 13.9601V24.9559ZM36.0026 13.762L31.867 10.3613V4.55134C31.8669 4.45294 31.8474 4.35552 31.8097 4.26464C31.772 4.17377 31.7167 4.09122 31.647 4.02171C31.5774 3.95219 31.4947 3.89708 31.4038 3.8595C31.3129 3.82193 31.2154 3.80264 31.117 3.80274H29.117C28.9195 3.80649 28.7311 3.88652 28.5913 4.02607C28.4515 4.16561 28.3711 4.35385 28.367 4.55134V7.48354L26.6219 6.04854L24.1942 4.05223L19.957 0.567835C19.5085 0.200634 18.9467 0 18.367 0C17.7873 0 17.2255 0.200634 16.777 0.567835L12.5397 4.05204L10.112 6.04834L6.867 8.71674L4.867 10.3613L0.731397 13.762C0.527035 13.9306 0.398018 14.1735 0.372728 14.4372C0.347439 14.701 0.427949 14.9639 0.596547 15.1683C0.765145 15.3727 1.00802 15.5017 1.27174 15.527C1.53547 15.5522 1.79843 15.4717 2.0028 15.3031L4.867 12.9478V28.7561C4.86739 29.1825 4.95177 29.6047 5.11531 29.9985C5.27885 30.3923 5.51835 30.75 5.82014 31.0512C6.12193 31.3525 6.4801 31.5913 6.8742 31.7541C7.26829 31.9169 7.6906 32.0005 8.117 32.0001H28.617C29.0434 32.0005 29.4657 31.9169 29.8598 31.7541C30.2539 31.5913 30.6121 31.3525 30.9139 31.0512C31.2156 30.75 31.4551 30.3923 31.6187 29.9985C31.7822 29.6047 31.8666 29.1825 31.867 28.7561V12.9478L34.7313 15.3031C34.8325 15.3866 34.9491 15.4494 35.0746 15.4878C35.2 15.5262 35.3318 15.5395 35.4623 15.527C35.5929 15.5144 35.7198 15.4763 35.8356 15.4148C35.9515 15.3532 36.0541 15.2695 36.1375 15.1683C36.221 15.0671 36.2838 14.9505 36.3222 14.825C36.3606 14.6996 36.3739 14.5678 36.3614 14.4372C36.3488 14.3066 36.3107 14.1798 36.2492 14.064C36.1876 13.9481 36.1039 13.8455 36.0027 13.762H36.0026ZM29.867 28.7561C29.8664 29.0873 29.7344 29.4046 29.5001 29.6385C29.2657 29.8725 28.9481 30.0038 28.617 30.0038H8.117C7.78587 30.0038 7.46828 29.8725 7.23393 29.6385C6.99957 29.4046 6.86761 29.0873 6.867 28.7561V11.3033L13.2577 6.04834L15.6854 4.05204L18.0485 2.10894C18.1383 2.03542 18.2508 1.99524 18.3669 1.99524C18.483 1.99524 18.5955 2.03542 18.6853 2.10894L21.0484 4.05204L23.4761 6.04834L29.867 11.3033V28.7561Z" fill="#1D1D1F"/>
</svg>
