<svg width="22" height="20" viewBox="0 0 22 20" fill="none" xmlns="http://www.w3.org/2000/svg">
<path d="M21.0999 6.26745C20.4829 4.35414 19.2976 2.6742 17.7019 1.45137C17.2415 1.1271 16.6969 0.943346 16.1341 0.922373C14.9828 0.804013 13.8278 0.694242 12.6717 0.656092C12.1795 0.639852 11.6868 0.632109 11.1936 0.632863C10.7006 0.632823 10.2078 0.640566 9.71542 0.656092C8.55942 0.694242 7.40435 0.804013 6.25301 0.922373C5.69025 0.943346 5.14565 1.1271 4.68523 1.45137C3.11044 2.69417 1.93003 4.36715 1.28713 6.26745C0.833748 7.58243 0.652367 8.97584 0.753999 10.3631C0.877549 12.2722 1.52352 14.1107 2.62133 15.6776C3.55976 17.0536 4.81792 18.1815 6.28792 18.9646C6.74046 19.228 7.22018 19.4417 7.7187 19.602C8.85383 19.8902 10.0226 20.0241 11.1935 20.0002C12.3645 20.0241 13.5333 19.8902 14.6684 19.6019C15.1669 19.4417 15.6466 19.228 16.0991 18.9645C17.5692 18.1815 18.8273 17.0536 19.7657 15.6775C20.8635 14.1107 21.5095 12.2722 21.633 10.363C21.7491 8.97544 21.5673 7.57908 21.0999 6.26745ZM11.1935 2.68125C8.13114 2.68125 5.64854 2.3036 5.64854 1.83775C5.64854 1.3719 8.1311 0.994263 11.1935 0.994263C14.256 0.994263 16.7385 1.3719 16.7385 1.83775C16.7385 2.3036 14.2559 2.68125 11.1935 2.68125Z" fill="#1D1D1F"/>
</svg>
