<svg width="47" height="57" viewBox="0 0 47 57" fill="none" xmlns="http://www.w3.org/2000/svg">
<path d="M18.244 33.2331C17.694 33.2781 17.136 33.3061 16.567 33.3061C16.148 33.3061 15.722 33.2931 15.301 33.2681L14.631 33.2281L14.073 33.6001C12.3638 34.7491 10.5326 35.7052 8.613 36.4511C9.12191 35.7486 9.58519 35.014 10 34.2521L10.965 32.4091L9.086 31.5171C5.021 29.5921 2.5 25.9851 2.5 22.1031C2.5 15.9171 8.968 10.8841 16.917 10.8841C24.817 10.8841 31.247 15.8551 31.327 21.9841C31.9886 21.9067 32.6539 21.8656 33.32 21.8611C33.163 14.6611 25.953 8.88013 16.92 8.88013C7.782 8.88613 0.5 14.7971 0.5 22.1031C0.5 26.8971 3.575 31.1171 8.223 33.3221C7.49814 34.5837 6.67669 35.7873 5.766 36.9221C5.016 37.8631 5.398 38.9221 6.722 38.9221C8.546 38.9221 12.268 37.2021 15.181 35.2611C15.6477 35.2891 16.1093 35.3028 16.566 35.3021C17.123 35.3021 17.672 35.2801 18.215 35.2401C18.196 34.9801 18.168 34.7221 18.168 34.4581C18.1695 34.0487 18.1949 33.6396 18.244 33.2331Z" fill="#6E6E73"/>
<path d="M46.4999 34.463C46.4999 28.605 40.6609 23.863 33.3349 23.863C33.2829 23.863 33.2349 23.869 33.1799 23.869C32.4877 23.877 31.7967 23.9284 31.1109 24.023C25.4809 24.786 21.1259 28.388 20.3189 32.937C20.2247 33.4387 20.1748 33.9476 20.1699 34.458C20.1699 34.641 20.1929 34.817 20.2029 34.997C20.5489 40.836 26.4299 45.04 33.6159 45.04C33.9829 45.04 34.3539 45.029 34.7269 45.007C37.0629 46.563 40.0469 47.942 41.5099 47.942C42.5719 47.942 42.8779 47.093 42.2769 46.342C41.5466 45.4317 40.888 44.4662 40.3069 43.454C44.0339 41.687 46.4999 38.303 46.4999 34.463ZM39.4499 41.649L37.5699 42.541L38.5349 44.384C38.6569 44.617 38.7949 44.856 38.9409 45.094C37.8628 44.5913 36.8245 44.0073 35.8349 43.347L35.2769 42.975L34.6069 43.015C34.2739 43.035 33.9429 43.045 33.6149 43.045C27.2439 43.045 22.2489 39.33 22.1749 34.569C22.1749 34.533 22.1679 34.499 22.1679 34.464C22.1725 33.7586 22.2882 33.0584 22.5109 32.389C23.4809 29.389 26.4899 27.018 30.3399 26.189C31.1046 26.0251 31.8816 25.9247 32.6629 25.889C32.8859 25.879 33.1079 25.863 33.3339 25.863C39.4909 25.863 44.4989 29.719 44.4989 34.463C44.4265 36.0165 43.9133 37.5172 43.0191 38.7897C42.125 40.0621 40.887 41.0535 39.4499 41.648V41.649Z" fill="#6E6E73"/>
</svg>
