<svg width="36" height="57" viewBox="0 0 36 57" fill="none" xmlns="http://www.w3.org/2000/svg">
<g clip-path="url(#clip0_2_8454)">
<path d="M33.905 17.2662L19.905 9.6852C19.3202 9.3674 18.6651 9.20093 17.9995 9.20093C17.3339 9.20093 16.6788 9.3674 16.094 9.6852L2.094 17.2662C1.46043 17.6096 0.931398 18.1178 0.562808 18.737C0.194219 19.3562 -0.000234357 20.0636 2.11969e-07 20.7842V35.6222C-0.000136779 36.3429 0.194466 37.0503 0.563238 37.6696C0.932009 38.2888 1.46125 38.7969 2.095 39.1402L16.095 46.7212C16.6798 47.0392 17.3349 47.2057 18.0005 47.2057C18.6661 47.2057 19.3212 47.0392 19.906 46.7212L33.906 39.1402C34.5396 38.7968 35.0686 38.2886 35.4372 37.6694C35.8058 37.0502 36.0002 36.3428 36 35.6222V20.7842C36.0001 20.0635 35.8055 19.3561 35.4368 18.7368C35.068 18.1176 34.5388 17.6095 33.905 17.2662ZM17.048 11.4442C17.3397 11.286 17.6662 11.2032 17.998 11.2032C18.3298 11.2032 18.6563 11.286 18.948 11.4442L32.748 18.9142L26.365 22.5592L11.943 14.2082L17.048 11.4442ZM18 27.3362L3.253 18.9142L9.882 15.3252L24.355 23.7032L18 27.3362ZM3.048 37.3812C2.73103 37.2096 2.46631 36.9556 2.28183 36.646C2.09736 36.3363 1.99998 35.9826 2 35.6222V20.7842C2.00607 20.6962 2.0181 20.6086 2.036 20.5222L17 29.0682V44.9362L3.048 37.3812ZM34 35.6222C34 35.9826 33.9026 36.3363 33.7182 36.646C33.5337 36.9556 33.269 37.2096 32.952 37.3812L19 44.9362V29.0682L33.964 20.5232C33.9819 20.6096 33.9939 20.6972 34 20.7852V35.6222Z" fill="#6E6E73"/>
</g>
<defs>
<clipPath id="clip0_2_8454">
<rect width="36" height="56" fill="white" transform="translate(0 0.203125)"/>
</clipPath>
</defs>
</svg>
