<svg width="94" height="50" viewBox="0 0 94 50" fill="none" xmlns="http://www.w3.org/2000/svg">
<g clip-path="url(#clip0_2_8309)">
<path d="M22.0356 37.0366C30.2356 37.0366 37.0356 30.2366 37.0356 22.0366C37.0356 13.8366 30.2356 7.03662 22.0356 7.03662C13.8356 7.03662 7.03564 13.8366 7.03564 22.0366C7.03564 30.2366 13.8356 37.0366 22.0356 37.0366ZM22.0356 35.0366C14.7356 35.0366 8.93565 29.2366 8.93565 22.0366C8.93565 14.8366 14.7356 8.93661 21.9356 8.93661C29.1356 8.93661 35.0356 14.7366 35.0356 22.0366C35.0356 29.2366 29.2356 35.0366 22.0356 35.0366ZM24.8356 29.3366C25.1356 29.0366 25.1356 28.4366 24.8356 28.1366L18.4356 22.0366L24.8356 15.9366C25.2356 15.6366 25.1356 15.0366 24.8356 14.7366C24.5356 14.4366 23.9356 14.4366 23.6356 14.7366L17.1356 20.9366C16.4356 21.5366 16.4356 22.5366 17.1356 23.1366L23.6356 29.3366C23.9356 29.6366 24.5356 29.7366 24.8356 29.3366Z" fill="#86868B"/>
</g>
<g clip-path="url(#clip1_2_8309)">
<path d="M72.0356 37.0366C80.2356 37.0366 87.0356 30.2366 87.0356 22.0366C87.0356 13.8366 80.2356 7.03662 72.0356 7.03662C63.8356 7.03662 57.0356 13.8366 57.0356 22.0366C57.0356 30.2366 63.8356 37.0366 72.0356 37.0366ZM72.0356 35.0366C64.7356 35.0366 58.9356 29.2366 58.9356 22.0366C58.9356 14.8366 64.7356 8.93661 71.9356 8.93661C79.1356 8.93661 85.0356 14.7366 85.0356 22.0366C85.0356 29.2366 79.2356 35.0366 72.0356 35.0366ZM68.7356 29.3366C69.0356 29.6366 69.6356 29.6366 70.0356 29.3366L76.5356 23.1366C77.2356 22.5366 77.2356 21.5366 76.5356 20.9366L70.0356 14.7366C69.6356 14.3366 69.1356 14.3366 68.8356 14.7366C68.4356 15.0366 68.4356 15.6366 68.8356 15.9366L75.2356 22.0366L68.8356 28.1366C68.3356 28.4366 68.3356 29.0366 68.7356 29.3366Z" fill="#1D1D1F"/>
</g>
<defs>
<clipPath id="clip0_2_8309">
<rect width="44" height="44" fill="white" transform="translate(0 0.015625)"/>
</clipPath>
<clipPath id="clip1_2_8309">
<rect width="44" height="44" fill="white" transform="translate(50 0.015625)"/>
</clipPath>
</defs>
</svg>
