<svg width="13" height="16" viewBox="0 0 13 16" fill="none" xmlns="http://www.w3.org/2000/svg">
<path d="M3.02003 15.1362C2.77003 14.9762 2.51003 14.7462 2.25003 14.4262C2.07003 14.2162 1.85003 13.9162 1.59003 13.5262C1.14003 12.8762 0.770029 12.1262 0.490029 11.2762C0.180029 10.3462 0.0300293 9.45616 0.0300293 8.58616C0.0300293 7.61616 0.240029 6.76616 0.650029 6.05616C0.970029 5.48616 1.40003 5.03616 1.95003 4.70616C2.50003 4.36616 3.08003 4.19616 3.71003 4.18616C3.93003 4.18616 4.16003 4.21616 4.41003 4.27616C4.59003 4.32616 4.81003 4.40616 5.07003 4.50616C5.41003 4.63616 5.60003 4.71616 5.66003 4.73616C5.86003 4.80616 6.03003 4.83616 6.16003 4.83616C6.26003 4.83616 6.40003 4.80616 6.56003 4.75616C6.65003 4.72616 6.82003 4.66616 7.06003 4.56616C7.30003 4.47616 7.49003 4.40616 7.64003 4.34616C7.87003 4.27616 8.09003 4.21616 8.29003 4.18616C8.53003 4.14616 8.77003 4.13616 9.00003 4.15616C9.44003 4.18616 9.84003 4.27616 10.2 4.41616C10.83 4.66616 11.34 5.06616 11.72 5.62616C11.56 5.72616 11.41 5.83616 11.27 5.96616C10.96 6.24616 10.7 6.55616 10.51 6.89616C10.24 7.37616 10.11 7.90616 10.11 8.45616C10.12 9.12616 10.29 9.71616 10.63 10.2262C10.87 10.5962 11.19 10.9162 11.58 11.1762C11.77 11.3062 11.94 11.3962 12.1 11.4562C12.02 11.7162 11.93 11.9462 11.85 12.1362C11.63 12.6562 11.37 13.1262 11.08 13.5662C10.81 13.9562 10.6 14.2462 10.44 14.4362C10.19 14.7362 9.95003 14.9562 9.71003 15.1162C9.43003 15.2962 9.13003 15.3862 8.81003 15.3862C8.59003 15.3962 8.38003 15.3662 8.17003 15.3062C8.05003 15.2662 7.87003 15.2062 7.64003 15.1062C7.41003 15.0062 7.22003 14.9362 7.08003 14.8962C6.85003 14.8362 6.61003 14.8062 6.36003 14.8062C6.11003 14.8062 5.87003 14.8362 5.64003 14.8962C5.48003 14.9362 5.30003 15.0062 5.08003 15.0962C4.82003 15.2062 4.65003 15.2762 4.55003 15.3062C4.35003 15.3662 4.14003 15.4062 3.94003 15.4162C3.62003 15.4162 3.32003 15.3262 3.02003 15.1362ZM7.26003 3.71616C6.84003 3.92616 6.44003 4.01616 6.04003 3.98616C5.98003 3.58616 6.04003 3.17616 6.21003 2.72616C6.36003 2.34616 6.56003 1.99616 6.83003 1.68616C7.10003 1.37616 7.43003 1.11616 7.84003 0.906162C8.25003 0.696162 8.64003 0.586162 9.01003 0.566162C9.06003 0.986162 9.01003 1.40616 8.86003 1.84616C8.72003 2.24616 8.51003 2.60616 8.24003 2.93616C7.97003 3.26616 7.64003 3.52616 7.26003 3.71616Z" fill="#333333"/>
</svg>
