<svg width="36" height="35" viewBox="0 0 36 35" fill="none" xmlns="http://www.w3.org/2000/svg">
<path d="M18.1406 32.2166C17.9377 32.2186 17.7379 32.1663 17.562 32.065C17.3862 31.9637 17.2407 31.8172 17.1406 31.6406L15.3286 29.1156C15.2756 29.0286 15.2286 28.9996 15.1726 28.9996H11.1406C9.94715 28.9996 8.80256 28.5255 7.95864 27.6816C7.11473 26.8376 6.64063 25.6931 6.64062 24.4996V10.5176C6.64062 9.3241 7.11473 8.17951 7.95864 7.3356C8.80256 6.49168 9.94715 6.01758 11.1406 6.01758H25.1406C26.3341 6.01758 27.4787 6.49168 28.3226 7.3356C29.1665 8.17951 29.6406 9.3241 29.6406 10.5176V24.4996C29.6406 25.6931 29.1665 26.8376 28.3226 27.6816C27.4787 28.5255 26.3341 28.9996 25.1406 28.9996H21.1046C21.0785 28.9995 21.0529 29.0063 21.0302 29.0193C21.0076 29.0323 20.9888 29.051 20.9756 29.0736L19.1086 31.6826C19.0082 31.8485 18.8659 31.9852 18.696 32.0789C18.5261 32.1726 18.3346 32.2201 18.1406 32.2166ZM11.1406 6.99958C10.2108 7.0046 9.32075 7.37743 8.66494 8.03661C8.00913 8.69579 7.64088 9.58774 7.64062 10.5176V24.4996C7.64062 25.4278 8.00937 26.3181 8.66575 26.9745C9.32213 27.6308 10.2124 27.9996 11.1406 27.9996H15.1766C15.3793 27.9991 15.5784 28.0521 15.754 28.1532C15.9296 28.2543 16.0754 28.4 16.1766 28.5756L17.9846 31.0996C18.1126 31.3126 18.1956 31.2696 18.2686 31.1416L20.1366 28.5316C20.2386 28.3671 20.3813 28.2318 20.5508 28.1386C20.7204 28.0454 20.9111 27.9975 21.1046 27.9996H25.1406C26.0689 27.9996 26.9591 27.6308 27.6155 26.9745C28.2719 26.3181 28.6406 25.4278 28.6406 24.4996V10.5176C28.6404 9.58774 28.2721 8.69579 27.6163 8.03661C26.9605 7.37743 26.0705 7.0046 25.1406 6.99958H11.1406Z" fill="black"/>
<path d="M21.9907 14.6349C21.6636 14.8428 21.3936 15.1292 21.2053 15.468C21.0171 15.8068 20.9165 16.1873 20.9126 16.5749C20.9106 17.0121 21.0379 17.4402 21.2787 17.8052C21.5195 18.1701 21.8629 18.4557 22.2656 18.6259C22.1184 19.1431 21.884 19.6314 21.5726 20.0699C21.1436 20.6869 20.6726 21.3159 19.9886 21.3159C19.3046 21.3159 19.1307 20.9079 18.3277 20.9079C17.5577 20.9079 17.2826 21.3269 16.6556 21.3269C16.0286 21.3269 15.5776 20.7539 15.0716 20.0369C14.4074 19.0389 14.0411 17.8724 14.0156 16.6739C13.974 16.3068 14.0075 15.9351 14.1143 15.5815C14.221 15.2278 14.3987 14.8996 14.6365 14.6169C14.8743 14.3342 15.1672 14.1029 15.4973 13.9372C15.8274 13.7714 16.1879 13.6747 16.5567 13.6529C17.2387 13.6529 17.7886 14.0939 18.2066 14.0939C18.6247 14.0939 19.2296 13.6309 19.9886 13.6309C20.3796 13.6182 20.7675 13.7034 21.1171 13.8788C21.4667 14.0541 21.767 14.314 21.9907 14.6349ZM18.2617 13.5209C18.2067 13.5209 18.1617 13.5099 18.1187 13.5099C18.1187 13.4769 18.1076 13.3999 18.1076 13.3229C18.1338 12.8134 18.3315 12.3277 18.6686 11.9449C19.0419 11.5011 19.576 11.2234 20.1537 11.1729C20.1635 11.239 20.1672 11.306 20.1646 11.3729C20.1532 11.8917 19.9688 12.3918 19.6406 12.7939C19.4725 13.0026 19.2634 13.1748 19.0262 13.2998C18.7891 13.4248 18.5289 13.5 18.2617 13.5209Z" fill="black"/>
</svg>
