<svg width="53" height="57" viewBox="0 0 53 57" fill="none" xmlns="http://www.w3.org/2000/svg">
<path d="M50.3862 17.6879L37.3862 10.5682C36.6381 10.1584 35.8112 9.95361 34.9843 9.95361C34.1574 9.95361 33.3305 10.1584 32.5824 10.5682L19.5824 17.6879C17.9804 18.5653 16.9843 20.2466 16.9843 22.0733V27.9689H18.9843V22.0733C18.9843 21.8171 19.0234 21.5673 19.0856 21.3257L33.9843 29.8334V45.7893C33.8351 45.7362 33.6825 45.6918 33.5431 45.6155L20.5431 38.4958C19.5817 37.9691 18.9843 36.9609 18.9843 35.8645V33.9689H16.9843V35.8645C16.9843 37.6912 17.9804 39.3724 19.5824 40.2499L32.5824 47.3696C33.3304 47.7793 34.1574 47.9842 34.9843 47.9842C35.8112 47.9842 36.6381 47.7793 37.3862 47.3696L50.3862 40.2499C51.9882 39.3725 52.9843 37.6912 52.9843 35.8645V22.0733C52.9843 20.2466 51.9882 18.5653 50.3862 17.6879ZM33.5431 12.3224C33.9835 12.0811 34.4821 11.9536 34.9843 11.9536C35.4865 11.9536 35.985 12.0811 36.4255 12.3224L49.4255 19.442C49.5424 19.506 49.6355 19.5974 49.7412 19.6749L43.6018 23.1807L28.7937 14.9235L33.5431 12.3224ZM20.2275 19.675C20.3332 19.5975 20.4262 19.5061 20.5432 19.4421L26.7214 16.0585L41.5725 24.3396L34.9843 28.1017L20.2275 19.675ZM50.9843 35.8645C50.9843 36.9609 50.3869 37.9691 49.4255 38.4957L36.4255 45.6154C36.2861 45.6917 36.1335 45.7362 35.9843 45.7893V29.8334L50.883 21.3257C50.9452 21.5673 50.9843 21.817 50.9843 22.0733V35.8645ZM18.9843 31.9689H16.9843H5.04882L10.3418 37.2619C10.7324 37.6525 10.7324 38.2853 10.3418 38.676C10.1464 38.8712 9.89052 38.9689 9.63472 38.9689C9.37892 38.9689 9.12302 38.8712 8.92772 38.6759L1.92772 31.6759C1.53712 31.2853 1.53712 30.6525 1.92772 30.2618L8.92772 23.2618C9.31832 22.8712 9.95112 22.8712 10.3418 23.2618C10.7325 23.6524 10.7324 24.2852 10.3418 24.6759L5.04882 29.9689H16.9843H18.9843H22.3593C22.912 29.9689 23.3593 30.4167 23.3593 30.9689C23.3593 31.5211 22.912 31.9689 22.3593 31.9689H18.9843Z" fill="#FC1E60"/>
</svg>
