<svg width="43" height="57" viewBox="0 0 43 57" fill="none" xmlns="http://www.w3.org/2000/svg">
<path d="M37.9531 12.9688H5.95312C4.62753 12.9703 3.35668 13.4976 2.41934 14.435C1.48201 15.3723 0.954713 16.6432 0.953125 17.9688L0.953125 39.9688C0.954713 41.2943 1.48201 42.5652 2.41934 43.5025C3.35668 44.4399 4.62753 44.9672 5.95312 44.9688H37.9531C39.2787 44.9672 40.5496 44.4399 41.4869 43.5025C42.4242 42.5652 42.9515 41.2943 42.9531 39.9688V17.9688C42.9515 16.6432 42.4242 15.3723 41.4869 14.435C40.5496 13.4976 39.2787 12.9703 37.9531 12.9688ZM5.95312 14.9688H37.9531C38.7488 14.9688 39.5118 15.2848 40.0744 15.8474C40.6371 16.41 40.9531 17.1731 40.9531 17.9688V20.9688H2.95312V17.9688C2.95312 17.1731 3.2692 16.41 3.8318 15.8474C4.39441 15.2848 5.15748 14.9688 5.95312 14.9688ZM37.9531 42.9688H5.95312C5.15748 42.9688 4.39441 42.6527 3.8318 42.0901C3.2692 41.5275 2.95312 40.7644 2.95312 39.9688V24.9688H40.9531V39.9688C40.9531 40.7644 40.6371 41.5275 40.0744 42.0901C39.5118 42.6527 38.7488 42.9688 37.9531 42.9688ZM6.95312 34.4688V30.4688C6.95312 30.0709 7.11116 29.6894 7.39246 29.4081C7.67377 29.1268 8.0553 28.9688 8.45312 28.9688H14.4531C14.8509 28.9688 15.2325 29.1268 15.5138 29.4081C15.7951 29.6894 15.9531 30.0709 15.9531 30.4688V34.4688C15.9531 34.8666 15.7951 35.2481 15.5138 35.5294C15.2325 35.8107 14.8509 35.9688 14.4531 35.9688H8.45312C8.0553 35.9688 7.67377 35.8107 7.39246 35.5294C7.11116 35.2481 6.95312 34.8666 6.95312 34.4688Z" fill="#6CCA4E"/>
</svg>
