<svg width="49" height="38" viewBox="0 0 49 38" fill="none" xmlns="http://www.w3.org/2000/svg">
<path d="M47.8447 18.4697L41.169 11.3409C40.7261 10.8681 40.1836 10.4997 39.5808 10.2624C38.978 10.0251 38.3299 9.92481 37.6836 9.96875H33V5.96875C33 4.64267 32.4732 3.3709 31.5355 2.43322C30.5979 1.49553 29.3261 0.96875 28 0.96875H5C4.34339 0.96875 3.69321 1.09808 3.08658 1.34935C2.47995 1.60063 1.92876 1.96892 1.46447 2.43322C0.526784 3.3709 0 4.64267 0 5.96875L0 26.9688C0 27.6254 0.129329 28.2755 0.380602 28.8822C0.631876 29.4888 1.00017 30.04 1.46447 30.5043C1.92876 30.9686 2.47995 31.3369 3.08658 31.5881C3.69321 31.8394 4.34339 31.9688 5 31.9688H6.15C6.27311 33.3691 6.91638 34.6724 7.95298 35.6219C8.98958 36.5714 10.3443 37.098 11.75 37.098C13.1557 37.098 14.5104 36.5714 15.547 35.6219C16.5836 34.6724 17.2269 33.3691 17.35 31.9688H31.15C31.2731 33.3691 31.9164 34.6724 32.953 35.6219C33.9896 36.5714 35.3443 37.098 36.75 37.098C38.1557 37.098 39.5104 36.5714 40.547 35.6219C41.5836 34.6724 42.2269 33.3691 42.35 31.9688H44.9936C47.54 31.9688 49 30.5596 49 28.1031V21.3515C49.0023 20.2777 48.5882 19.2447 47.8447 18.4697ZM15.3245 31.9688C15.2078 32.834 14.7813 33.6276 14.1239 34.2022C13.4666 34.7769 12.6231 35.0936 11.75 35.0936C10.877 35.0936 10.0335 34.7769 9.37617 34.2022C8.71885 33.6276 8.29227 32.834 8.1756 31.9688C8.05257 31.2889 8.15231 30.5874 8.46 29.9688C8.80592 29.2205 9.39651 28.6126 10.1344 28.2451C10.8722 27.8776 11.7133 27.7725 12.5189 27.9473C13.3245 28.122 14.0464 28.5661 14.5657 29.2062C15.085 29.8464 15.3707 30.6445 15.3755 31.4688C15.3703 31.6364 15.3533 31.8035 15.3245 31.9688ZM31 29.9688H17.1665C16.8395 28.7832 16.1326 27.7376 15.1542 26.9925C14.1757 26.2473 12.9799 25.8438 11.75 25.8438C10.5201 25.8438 9.32426 26.2473 8.34583 26.9925C7.36739 27.7376 6.66046 28.7832 6.3335 29.9688H5C4.20462 29.9679 3.44206 29.6515 2.87964 29.0891C2.31722 28.5267 2.00087 27.7641 2 26.9688V5.96875C2.00087 5.17337 2.31722 4.41081 2.87964 3.84839C3.44206 3.28597 4.20462 2.96962 5 2.96875H28C28.7954 2.96962 29.5579 3.28597 30.1204 3.84839C30.6828 4.41081 30.9991 5.17337 31 5.96875V29.9688ZM40.3245 31.9688C40.2078 32.834 39.7812 33.6276 39.1239 34.2022C38.4666 34.7769 37.6231 35.0936 36.75 35.0936C35.877 35.0936 35.0335 34.7769 34.3762 34.2022C33.7188 33.6276 33.2923 32.834 33.1756 31.9688C33.0524 31.2889 33.152 30.5875 33.4595 29.9688C33.8054 29.2205 34.396 28.6126 35.1339 28.2451C35.8717 27.8776 36.7128 27.7725 37.5184 27.9473C38.324 28.122 39.0459 28.5661 39.5652 29.2062C40.0845 29.8464 40.3702 30.6445 40.375 31.4688C40.37 31.6364 40.3531 31.8035 40.3245 31.9688ZM47 28.1031C47 29.4288 46.419 29.9688 44.9932 29.9688H42.1665C41.9128 29.0459 41.4273 28.2032 40.7561 27.5208C40.085 26.8384 39.2505 26.339 38.3319 26.07C37.4134 25.801 36.4413 25.7714 35.5081 25.9839C34.5748 26.1965 33.7115 26.6442 33 27.2845V11.9688H37.6836C38.0564 11.9276 38.4337 11.9733 38.7859 12.1023C39.1381 12.2313 39.4556 12.4402 39.7136 12.7125L46.4011 19.8535C46.785 20.2579 46.9993 20.794 47 21.3515V28.1031ZM43.6087 20.0814C43.7315 20.1944 43.8296 20.3316 43.897 20.4843C43.9643 20.6369 43.9994 20.8019 44 20.9688H36.2227C36.0582 20.9808 35.8931 20.957 35.7386 20.8992C35.5842 20.8414 35.4441 20.7508 35.3279 20.6337C35.2118 20.5167 35.1223 20.3759 35.0657 20.2209C35.0091 20.066 34.9867 19.9007 35 19.7363V13.9688H37.4131C37.6687 13.9645 37.9218 14.0185 38.1534 14.1267C38.385 14.2349 38.5888 14.3944 38.7495 14.5931L43.6087 20.0814Z" fill="#6CCA4E"/>
</svg>
