<svg width="44" height="57" viewBox="0 0 44 57" fill="none" xmlns="http://www.w3.org/2000/svg">
<path d="M39.4687 27.9688C39.3374 27.9687 39.2073 27.9946 39.086 28.0448C38.9647 28.095 38.8544 28.1687 38.7615 28.2616C38.6687 28.3544 38.595 28.4647 38.5448 28.586C38.4945 28.7074 38.4687 28.8374 38.4687 28.9688V39.9688C38.4672 41.2944 37.9399 42.5652 37.0025 43.5026C36.0652 44.4399 34.7943 44.9672 33.4687 44.9688H11.4687C10.1431 44.9672 8.87225 44.4399 7.93491 43.5026C6.99757 42.5652 6.47028 41.2944 6.46872 39.9688V36.1328L8.01172 37.6758C8.10436 37.7696 8.21463 37.8442 8.3362 37.8952C8.45776 37.9462 8.58821 37.9727 8.72005 37.9731C8.85189 37.9735 8.9825 37.9479 9.10438 37.8976C9.22626 37.8473 9.337 37.7735 9.43022 37.6802C9.52344 37.587 9.5973 37.4763 9.64756 37.3544C9.69782 37.2325 9.72348 37.1019 9.72306 36.9701C9.72264 36.8382 9.69616 36.7078 9.64513 36.5862C9.5941 36.4647 9.51953 36.3544 9.42572 36.2617L6.17572 33.0117C6.08289 32.9189 5.97267 32.8452 5.85136 32.7949C5.73004 32.7447 5.60001 32.7188 5.46869 32.7188C5.33738 32.7188 5.20735 32.7447 5.08603 32.7949C4.96472 32.8452 4.85449 32.9189 4.76166 33.0117L1.51166 36.2617C1.41786 36.3544 1.3433 36.4647 1.29228 36.5862C1.24125 36.7078 1.21477 36.8382 1.21436 36.9701C1.21395 37.1019 1.23961 37.2325 1.28987 37.3544C1.34014 37.4763 1.41401 37.587 1.50723 37.6802C1.60046 37.7735 1.7112 37.8473 1.83308 37.8976C1.95496 37.9478 2.08558 37.9735 2.21741 37.9731C2.34925 37.9727 2.4797 37.9462 2.60126 37.8952C2.72282 37.8441 2.83309 37.7696 2.92572 37.6758L4.46872 36.1328V39.9688C4.47089 41.8246 5.20908 43.6038 6.52137 44.9161C7.83365 46.2284 9.61287 46.9666 11.4687 46.9688H33.4687C35.3246 46.9666 37.1038 46.2284 38.4161 44.9161C39.7284 43.6038 40.4666 41.8246 40.4687 39.9688V28.9688C40.4688 28.8374 40.4429 28.7074 40.3927 28.586C40.3424 28.4647 40.2688 28.3544 40.1759 28.2616C40.083 28.1687 39.9728 28.095 39.8514 28.0448C39.7301 27.9946 39.6001 27.9687 39.4687 27.9688Z" fill="#AB45FB"/>
<path d="M29.1406 33.6843C29.0928 33.6775 29.0441 33.6818 28.9984 33.6971C28.9526 33.7124 28.911 33.7381 28.8769 33.7722C28.8428 33.8063 28.8171 33.8479 28.8018 33.8936C28.7866 33.9394 28.7822 33.9881 28.789 34.0358C28.789 34.2585 28.9062 34.3698 29.1406 34.3698H31.7685C31.8144 34.377 31.8613 34.3734 31.9055 34.3593C31.9498 34.3451 31.9901 34.3209 32.0234 34.2885C32.0566 34.2561 32.0819 34.2164 32.0972 34.1726C32.1124 34.1287 32.1172 34.0819 32.1113 34.0358C32.1186 33.9888 32.1149 33.9406 32.1004 33.8953C32.0859 33.8499 32.061 33.8085 32.0278 33.7744C31.9945 33.7403 31.9538 33.7144 31.9088 33.6987C31.8638 33.6831 31.8157 33.6781 31.7685 33.6843H29.1406Z" fill="#AB45FB"/>
<path d="M31.5703 22.2891C31.3794 22.122 31.1572 21.9944 30.9167 21.9137C30.6762 21.833 30.422 21.8008 30.169 21.8189H14.419C13.9167 21.7914 13.4234 21.9599 13.043 22.2891C12.8654 22.4726 12.7286 22.6915 12.6416 22.9316C12.5545 23.1717 12.5193 23.4275 12.5381 23.6821V34.1148H11.6133C11.4821 34.1126 11.3519 34.1377 11.2309 34.1884C11.1099 34.2391 11.0007 34.3142 10.9102 34.4092C10.7243 34.5979 10.6201 34.8521 10.6201 35.1169C10.6201 35.3818 10.7243 35.636 10.9102 35.8247C11.0008 35.9194 11.1101 35.9944 11.2311 36.045C11.3521 36.0956 11.4822 36.1206 11.6133 36.1187H32.3574C32.6158 36.1294 32.8737 36.0891 33.1165 36.0002C33.3593 35.9112 33.5822 35.7753 33.7724 35.6001C33.9536 35.4257 34.0957 35.2149 34.1897 34.9816C34.2836 34.7484 34.3271 34.4979 34.3174 34.2466V25.8706C34.3271 25.6193 34.2836 25.3688 34.1897 25.1355C34.0957 24.9023 33.9536 24.6915 33.7724 24.5171C33.5822 24.3419 33.3593 24.206 33.1165 24.117C32.8737 24.028 32.6158 23.9878 32.3574 23.9985H32.0498V23.6821C32.0684 23.4295 32.0356 23.1758 31.9531 22.9363C31.8707 22.6969 31.7405 22.4767 31.5703 22.2891ZM26.5742 25.8706V34.1148H13.9531V24.0776C13.9368 23.963 13.9473 23.8462 13.9839 23.7363C14.0205 23.6265 14.0822 23.5267 14.1641 23.4448C14.2459 23.363 14.3457 23.3013 14.4556 23.2647C14.5654 23.2281 14.6823 23.2175 14.7969 23.2339H29.791C29.9052 23.2251 30.0201 23.2392 30.1287 23.2755C30.2374 23.3117 30.3377 23.3693 30.4238 23.4448C30.5561 23.5987 30.6271 23.7957 30.6236 23.9985H28.5342C28.2758 23.9878 28.0179 24.0281 27.7751 24.117C27.5323 24.206 27.3094 24.342 27.1192 24.5171C26.9381 24.6915 26.7959 24.9023 26.7019 25.1356C26.608 25.3688 26.5645 25.6193 26.5742 25.8706ZM32.1113 25.5366V25.1851H32.208C32.4554 25.1709 32.6985 25.2546 32.8848 25.418C32.9684 25.5008 33.0335 25.6004 33.0759 25.7103C33.1184 25.8201 33.1371 25.9376 33.1309 26.0552V34.062C33.1371 34.1796 33.1184 34.2971 33.0759 34.4069C33.0335 34.5167 32.9684 34.6163 32.8848 34.6992C32.6985 34.8626 32.4554 34.9462 32.208 34.9321H28.6924C28.4422 34.9472 28.1961 34.8636 28.0069 34.6992C27.9232 34.6163 27.8581 34.5167 27.8157 34.4069C27.7733 34.2971 27.7546 34.1796 27.7608 34.062V26.0552C27.7546 25.9376 27.7733 25.8201 27.8157 25.7103C27.8581 25.6005 27.9232 25.5008 28.0069 25.418C28.1961 25.2536 28.4422 25.17 28.6924 25.1851H28.7891V25.5366C28.7843 25.6762 28.8348 25.8121 28.9297 25.9146C28.9771 25.9642 29.0345 26.0033 29.0982 26.029C29.1618 26.0548 29.2302 26.0667 29.2988 26.064H31.6016C31.6702 26.0667 31.7386 26.0548 31.8022 26.029C31.8659 26.0033 31.9233 25.9642 31.9707 25.9146C32.0656 25.8121 32.1161 25.6762 32.1113 25.5366V25.5366Z" fill="#AB45FB"/>
<path d="M43.4258 20.2617C43.333 20.1689 43.2228 20.0952 43.1014 20.0449C42.9801 19.9947 42.8501 19.9688 42.7188 19.9688C42.5875 19.9688 42.4574 19.9947 42.3361 20.0449C42.2148 20.0952 42.1046 20.1689 42.0117 20.2617L40.4688 21.8048V17.9688C40.4666 16.1129 39.7284 14.3337 38.4161 13.0214C37.1038 11.7091 35.3246 10.9709 33.4688 10.9688H11.4688C9.6129 10.9709 7.83368 11.7091 6.52139 13.0214C5.20911 14.3337 4.47091 16.1129 4.46875 17.9688V28.9688C4.46875 29.234 4.57411 29.4883 4.76164 29.6759C4.94918 29.8634 5.20353 29.9688 5.46875 29.9688C5.73397 29.9688 5.98832 29.8634 6.17586 29.6759C6.36339 29.4883 6.46875 29.234 6.46875 28.9688V17.9688C6.47031 16.6431 6.99759 15.3723 7.93494 14.4349C8.87228 13.4976 10.1431 12.9703 11.4688 12.9688H33.4688C34.7944 12.9703 36.0652 13.4976 37.0026 14.4349C37.9399 15.3723 38.4672 16.6431 38.4688 17.9688V21.8047L36.9258 20.2617C36.7377 20.077 36.4842 19.974 36.2206 19.9752C35.957 19.9764 35.7045 20.0817 35.5181 20.2681C35.3317 20.4545 35.2265 20.707 35.2253 20.9706C35.2241 21.2343 35.3271 21.4877 35.5118 21.6758L38.7618 24.9258C38.8546 25.0186 38.9649 25.0923 39.0862 25.1426C39.2075 25.1928 39.3375 25.2187 39.4688 25.2187C39.6002 25.2187 39.7302 25.1928 39.8515 25.1426C39.9728 25.0923 40.083 25.0186 40.1759 24.9258L43.4259 21.6758C43.5187 21.5829 43.5924 21.4727 43.6427 21.3514C43.6929 21.2301 43.7188 21.1 43.7188 20.9687C43.7188 20.8374 43.6929 20.7074 43.6426 20.5861C43.5924 20.4648 43.5187 20.3546 43.4258 20.2617Z" fill="#AB45FB"/>
</svg>
